<svg width="284" height="190" viewBox="0 0 284 190" fill="none" xmlns="http://www.w3.org/2000/svg">
<path d="M96.4858 2H137V42H96.4858V2Z" fill="#38CEEF"/>
<path d="M42.0046 136.5C42.0046 151.239 32.8074 162.5 22.2085 162.5C11.6095 162.5 2.41235 151.239 2.41235 136.5C2.41235 121.761 11.6095 110.5 22.2085 110.5C32.8074 110.5 42.0046 121.761 42.0046 136.5Z" stroke="#4F4F4F" stroke-width="3"/>
<path d="M85.636 151C85.636 157.009 81.4607 161.5 76.7476 161.5C72.0345 161.5 67.8593 157.009 67.8593 151C67.8593 144.991 72.0345 140.5 76.7476 140.5C81.4607 140.5 85.636 144.991 85.636 151Z" stroke="#4F4F4F" stroke-width="3"/>
<path d="M111.607 151C111.607 156.937 107.263 161.5 102.199 161.5C97.1346 161.5 92.7911 156.937 92.7911 151C92.7911 145.063 97.1346 140.5 102.199 140.5C107.263 140.5 111.607 145.063 111.607 151Z" stroke="#4F4F4F" stroke-width="3"/>
<path d="M49.738 142L49.738 163" stroke="#4F4F4F" stroke-width="3" stroke-linecap="round"/>
<path d="M50.1011 147.75C52.1823 145.746 54.0836 142.589 56.7496 141.305C57.7351 140.831 59.0763 140.55 60.1778 140.55C61.1947 140.55 62.6409 141.785 62.5671 141.75" stroke="#4F4F4F" stroke-width="3" stroke-linecap="round"/>
<path d="M85.526 149.55V181.95C85.526 181.95 83.9677 188.5 75.7088 188.5C67.4498 188.5 65.8398 182.5 65.8398 182.5" stroke="#4F4F4F" stroke-width="3" stroke-linecap="round"/>
<path d="M118.301 162C119.13 162 119.801 161.328 119.801 160.5C119.801 159.672 119.13 159 118.301 159V162ZM110.049 151.5C110.049 153.573 110.016 155.276 110.083 156.57C110.149 157.831 110.316 159.053 110.944 160.01C111.648 161.083 112.724 161.546 113.906 161.764C115.039 161.973 116.51 162 118.301 162V159C116.457 159 115.266 158.964 114.451 158.814C113.685 158.673 113.528 158.48 113.452 158.365C113.301 158.135 113.143 157.637 113.079 156.414C113.017 155.224 113.049 153.677 113.049 151.5L110.049 151.5Z" fill="#4F4F4F"/>
<path d="M123.034 160.5C123.034 161.329 123.705 162 124.534 162C125.362 162 126.034 161.329 126.034 160.5H123.034ZM135.961 140L136.568 138.628L136.495 138.596L136.419 138.572L135.961 140ZM138.616 160.5C138.616 161.328 139.288 162 140.116 162C140.945 162 141.616 161.328 141.616 160.5H138.616ZM126.034 160.5V146.986H123.034V160.5H126.034ZM126.034 146.986C126.034 145.675 126.755 143.719 128.305 142.384C129.761 141.128 132.065 140.325 135.502 141.428L136.419 138.572C132.066 137.175 128.655 138.121 126.346 140.111C124.13 142.021 123.034 144.809 123.034 146.986H126.034ZM135.354 141.372C135.95 141.636 136.76 142.126 137.416 142.977C138.056 143.806 138.616 145.061 138.616 146.986H141.616C141.616 144.423 140.852 142.519 139.792 141.144C138.747 139.791 137.479 139.032 136.568 138.628L135.354 141.372ZM138.616 146.986V160.5H141.616V146.986H138.616Z" fill="#4F4F4F"/>
<path d="M151.543 140V161" stroke="#4F4F4F" stroke-width="3" stroke-linecap="round"/>
<path d="M162.971 140L178.554 140" stroke="#4F4F4F" stroke-width="3" stroke-linecap="round"/>
<path d="M161.932 161L178.553 140" stroke="#4F4F4F" stroke-width="3" stroke-linecap="round"/>
<path d="M162.971 161L178.554 161" stroke="#4F4F4F" stroke-width="3" stroke-linecap="round"/>
<path d="M184.787 147.369L183.314 147.082L182.966 148.869H184.787V147.369ZM201.928 147.369V148.869H203.428V147.369H201.928ZM196.214 139.368L196.565 137.91L196.214 139.368ZM184.787 148.869C191.02 148.869 195.089 148.869 197.707 148.869C200.326 148.869 201.495 148.869 201.928 148.869V145.869C201.495 145.869 200.326 145.869 197.707 145.869C195.089 145.869 191.02 145.869 184.787 145.869V148.869ZM203.428 147.369C203.428 145.517 202.709 143.433 201.567 141.714C200.427 139.998 198.719 138.428 196.565 137.91L195.863 140.827C197.034 141.108 198.182 142.039 199.068 143.374C199.952 144.705 200.428 146.221 200.428 147.369H203.428ZM196.565 137.91C194.026 137.299 191.136 137.245 188.61 138.632C186.034 140.046 184.152 142.782 183.314 147.082L186.259 147.656C186.98 143.956 188.474 142.129 190.054 141.262C191.683 140.367 193.727 140.313 195.863 140.827L196.565 137.91Z" fill="#4F4F4F"/>
<path d="M186.235 147.396C186.453 146.597 185.983 145.772 185.184 145.553C184.384 145.335 183.559 145.805 183.341 146.604L186.235 147.396ZM203.056 157.488C203.602 156.864 203.539 155.917 202.915 155.371C202.292 154.826 201.344 154.889 200.799 155.512L203.056 157.488ZM183.341 146.604C181.856 152.034 184.376 157.424 188.435 160.124C190.486 161.488 192.974 162.197 195.578 161.846C198.191 161.493 200.778 160.092 203.056 157.488L200.799 155.512C198.921 157.658 196.962 158.632 195.177 158.873C193.381 159.115 191.617 158.637 190.097 157.626C187.014 155.576 185.121 151.466 186.235 147.396L183.341 146.604Z" fill="#4F4F4F"/>
<path d="M223.801 160.5C223.801 161.329 224.472 162 225.301 162C226.129 162 226.801 161.329 226.801 160.5H223.801ZM236.728 140L237.335 138.628L237.262 138.596L237.186 138.572L236.728 140ZM239.383 160.5C239.383 161.328 240.055 162 240.883 162C241.712 162 242.383 161.328 242.383 160.5H239.383ZM226.801 160.5V146.986H223.801V160.5H226.801ZM226.801 146.986C226.801 145.675 227.522 143.719 229.072 142.384C230.529 141.128 232.832 140.325 236.27 141.428L237.186 138.572C232.833 137.175 229.423 138.121 227.113 140.111C224.897 142.021 223.801 144.809 223.801 146.986H226.801ZM236.121 141.372C236.717 141.636 237.527 142.126 238.184 142.977C238.824 143.806 239.383 145.061 239.383 146.986H242.383C242.383 144.423 241.619 142.519 240.559 141.144C239.515 139.791 238.247 139.032 237.335 138.628L236.121 141.372ZM239.383 146.986V160.5H242.383V146.986H239.383Z" fill="#4F4F4F"/>
<path d="M239.383 160.5C239.383 161.329 240.055 162 240.883 162C241.712 162 242.383 161.329 242.383 160.5H239.383ZM252.31 140L252.917 138.628L252.845 138.596L252.769 138.572L252.31 140ZM254.966 160.5C254.966 161.328 255.637 162 256.466 162C257.294 162 257.966 161.328 257.966 160.5H254.966ZM242.383 160.5V146.986H239.383V160.5H242.383ZM242.383 146.986C242.383 145.675 243.105 143.719 244.654 142.384C246.111 141.128 248.414 140.325 251.852 141.428L252.769 138.572C248.415 137.175 245.005 138.121 242.696 140.111C240.48 142.021 239.383 144.809 239.383 146.986H242.383ZM251.704 141.372C252.3 141.636 253.109 142.126 253.766 142.977C254.406 143.806 254.966 145.061 254.966 146.986H257.966C257.966 144.423 257.202 142.519 256.141 141.144C255.097 139.791 253.829 139.032 252.917 138.628L251.704 141.372ZM254.966 146.986V160.5H257.966V146.986H254.966Z" fill="#4F4F4F"/>
<path d="M265.151 147.369L263.679 147.082L263.331 148.869H265.151V147.369ZM282.292 147.369V148.869H283.792V147.369H282.292ZM276.579 139.368L276.93 137.91L276.579 139.368ZM265.151 148.869C271.384 148.869 275.453 148.869 278.072 148.869C280.691 148.869 281.859 148.869 282.292 148.869V145.869C281.859 145.869 280.691 145.869 278.072 145.869C275.453 145.869 271.384 145.869 265.151 145.869V148.869ZM283.792 147.369C283.792 145.517 283.073 143.433 281.932 141.714C280.792 139.998 279.083 138.428 276.93 137.91L276.228 140.827C277.398 141.108 278.546 142.039 279.432 143.374C280.316 144.705 280.792 146.221 280.792 147.369H283.792ZM276.93 137.91C274.391 137.299 271.501 137.245 268.974 138.632C266.398 140.046 264.517 142.782 263.679 147.082L266.624 147.656C267.344 143.956 268.839 142.129 270.418 141.262C272.047 140.367 274.091 140.313 276.228 140.827L276.93 137.91Z" fill="#4F4F4F"/>
<path d="M266.6 147.396C266.819 146.597 266.348 145.772 265.549 145.553C264.75 145.335 263.925 145.805 263.706 146.604L266.6 147.396ZM283.422 157.488C283.967 156.864 283.904 155.917 283.281 155.371C282.657 154.826 281.71 154.889 281.164 155.512L283.422 157.488ZM263.706 146.604C262.221 152.034 264.741 157.424 268.801 160.124C270.852 161.488 273.34 162.197 275.943 161.846C278.557 161.493 281.144 160.092 283.422 157.488L281.164 155.512C279.286 157.658 277.328 158.632 275.542 158.873C273.747 159.115 271.982 158.637 270.462 157.626C267.38 155.576 265.487 151.466 266.6 147.396L263.706 146.604Z" fill="#4F4F4F"/>
<path d="M98 1L98 9" stroke="black" stroke-opacity="0.494118" stroke-linecap="round"/>
<path d="M99 25V41" stroke="black" stroke-opacity="0.494118" stroke-linecap="round"/>
<path d="M98.4082 12.5789L98.4082 15.7368" stroke="black" stroke-opacity="0.494118" stroke-linecap="round"/>
<path d="M99.4473 41H138.3" stroke="black" stroke-opacity="0.494118" stroke-linecap="round"/>
<path d="M136.844 2.05261V28.4739" stroke="black" stroke-opacity="0.494118" stroke-linecap="round"/>
<path d="M98.46 1H136.689" stroke="black" stroke-opacity="0.494118" stroke-linecap="round"/>
<g filter="url(#filter0_bd_8_3678)">
<path d="M111.549 23H159.335V72H111.549V23Z" fill="#FFE1B3"/>
</g>
<path d="M161.929 70.999L161.929 60.6286" stroke="black" stroke-opacity="0.494118" stroke-linecap="round"/>
<path d="M161.93 56.7402L161.93 52.8513" stroke="black" stroke-opacity="0.494118" stroke-linecap="round"/>
<path d="M161.608 41.4438L161.608 22.2586" stroke="black" stroke-opacity="0.494118" stroke-linecap="round"/>
<path d="M161.876 22L129.008 22" stroke="black" stroke-opacity="0.494118" stroke-linecap="round"/>
<path d="M160.582 70.9995L113.362 70.9995" stroke="black" stroke-opacity="0.494118" stroke-linecap="round"/>
<path d="M118.406 22H113.105M123.177 22H121.587" stroke="black" stroke-opacity="0.494118" stroke-linecap="round"/>
<path d="M113.106 71L113.106 22" stroke="black" stroke-opacity="0.494118" stroke-linecap="round"/>
<g filter="url(#filter1_bd_8_3678)">
<rect width="62.3301" height="61" transform="matrix(1 0 0 -1 125.573 99)" fill="#FF6069"/>
</g>
<path d="M189.98 64.2422L189.98 93.3634" stroke="#828282" stroke-linecap="round"/>
<path d="M189.98 37L189.98 52.0303" stroke="#828282" stroke-linecap="round"/>
<path d="M189.98 54.8481L189.98 59.5451" stroke="#828282" stroke-linecap="round"/>
<path d="M189.98 92.4243L189.98 99.0001" stroke="#828282" stroke-linecap="round"/>
<path d="M127.65 99.0002L134.922 99L189.981 99.0002" stroke="#828282" stroke-linecap="round"/>
<path d="M127.65 37L127.65 99" stroke="#828282" stroke-linecap="round"/>
<path d="M189.98 37L157.959 37L127.65 37" stroke="#828282" stroke-linecap="round"/>
<mask id="path-42-inside-1_8_3678" fill="white">
<ellipse cx="214.913" cy="159" rx="2.07767" ry="2"/>
</mask>
<ellipse cx="214.913" cy="159" rx="2.07767" ry="2" fill="#2B69F5"/>
<path d="M213.991 159C213.991 158.341 214.512 158 214.913 158V164C217.609 164 219.991 161.868 219.991 159H213.991ZM214.913 158C215.314 158 215.835 158.341 215.835 159H209.835C209.835 161.868 212.218 164 214.913 164V158ZM215.835 159C215.835 159.659 215.314 160 214.913 160V154C212.218 154 209.835 156.132 209.835 159H215.835ZM214.913 160C214.512 160 213.991 159.659 213.991 159H219.991C219.991 156.132 217.609 154 214.913 154V160Z" fill="#4F4F4F" mask="url(#path-42-inside-1_8_3678)"/>
<defs>
<filter id="filter0_bd_8_3678" x="99.5487" y="17" width="71.7864" height="73" filterUnits="userSpaceOnUse" color-interpolation-filters="sRGB">
<feFlood flood-opacity="0" result="BackgroundImageFix"/>
<feGaussianBlur in="BackgroundImage" stdDeviation="3"/>
<feComposite in2="SourceAlpha" operator="in" result="effect1_backgroundBlur_8_3678"/>
<feColorMatrix in="SourceAlpha" type="matrix" values="0 0 0 0 0 0 0 0 0 0 0 0 0 0 0 0 0 0 127 0" result="hardAlpha"/>
<feOffset dy="6"/>
<feGaussianBlur stdDeviation="6"/>
<feComposite in2="hardAlpha" operator="out"/>
<feColorMatrix type="matrix" values="0 0 0 0 0 0 0 0 0 0 0 0 0 0 0 0 0 0 0.1 0"/>
<feBlend mode="normal" in2="effect1_backgroundBlur_8_3678" result="effect2_dropShadow_8_3678"/>
<feBlend mode="normal" in="SourceGraphic" in2="effect2_dropShadow_8_3678" result="shape"/>
</filter>
<filter id="filter1_bd_8_3678" x="119.573" y="34" width="74.3301" height="75" filterUnits="userSpaceOnUse" color-interpolation-filters="sRGB">
<feFlood flood-opacity="0" result="BackgroundImageFix"/>
<feGaussianBlur in="BackgroundImage" stdDeviation="2"/>
<feComposite in2="SourceAlpha" operator="in" result="effect1_backgroundBlur_8_3678"/>
<feColorMatrix in="SourceAlpha" type="matrix" values="0 0 0 0 0 0 0 0 0 0 0 0 0 0 0 0 0 0 127 0" result="hardAlpha"/>
<feOffset dy="4"/>
<feGaussianBlur stdDeviation="3"/>
<feComposite in2="hardAlpha" operator="out"/>
<feColorMatrix type="matrix" values="0 0 0 0 0 0 0 0 0 0 0 0 0 0 0 0 0 0 0.05 0"/>
<feBlend mode="normal" in2="effect1_backgroundBlur_8_3678" result="effect2_dropShadow_8_3678"/>
<feBlend mode="normal" in="SourceGraphic" in2="effect2_dropShadow_8_3678" result="shape"/>
</filter>
</defs>
</svg>
