<svg width="30" height="25" viewBox="0 0 30 25" fill="none" xmlns="http://www.w3.org/2000/svg">
<path d="M13.349 1.73106C13.7527 1.35422 13.7746 0.721435 13.3977 0.317684C13.0209 -0.0860669 12.3881 -0.107887 11.9843 0.268947L13.349 1.73106ZM0.999998 11.8889L0.31768 11.1578C0.119422 11.3429 0.00482034 11.6005 0.000146634 11.8717C-0.00452713 12.1428 0.101128 12.4042 0.292891 12.596L0.999998 11.8889ZM11.9596 24.2627C12.3501 24.6532 12.9832 24.6532 13.3738 24.2627C13.7643 23.8721 13.7643 23.239 13.3738 22.8484L11.9596 24.2627ZM11.9843 0.268947L0.31768 11.1578L1.68232 12.6199L13.349 1.73106L11.9843 0.268947ZM0.292891 12.596L11.9596 24.2627L13.3738 22.8484L1.7071 11.1818L0.292891 12.596Z" fill="#2B69F5"/>
<path d="M29.0001 12.8889C29.5524 12.8889 30.0001 12.4412 30.0001 11.8889C30.0001 11.3366 29.5524 10.8889 29.0001 10.8889L29.0001 12.8889ZM2.55566 12.8889L29.0001 12.8889L29.0001 10.8889L2.55566 10.8889L2.55566 12.8889Z" fill="#2B69F5"/>
</svg>
