<svg width="22" height="22" viewBox="0 0 22 22" fill="none" xmlns="http://www.w3.org/2000/svg">
<ellipse cx="5.57523" cy="11.2752" rx="0.789583" ry="0.825" fill="#5D83FD"/>
<ellipse cx="10.3125" cy="11.2752" rx="0.789583" ry="0.825" fill="#5D83FD"/>
<ellipse cx="15.0501" cy="11.2752" rx="0.789583" ry="0.825" fill="#5D83FD"/>
<mask id="path-4-inside-1_185_17165" fill="white">
<path fill-rule="evenodd" clip-rule="evenodd" d="M10.5756 22C16.39 22 21.1034 17.0751 21.1034 11C21.1034 4.92487 16.39 0 10.5756 0C4.7613 0 0.0478516 4.92487 0.0478516 11C0.0478516 13.1329 0.628841 15.124 1.63448 16.81C1.60491 16.8862 1.57916 16.9655 1.55761 17.0478L1.05953 18.9494C0.662178 20.4664 1.985 21.8634 3.44106 21.4644L5.2662 20.9643C5.43466 20.9182 5.59027 20.852 5.73215 20.7693C7.18205 21.5557 8.82918 22 10.5756 22Z"/>
</mask>
<path d="M1.63448 16.81L3.49899 17.5336L3.85212 16.6237L3.35214 15.7855L1.63448 16.81ZM1.55761 17.0478L-0.377123 16.541L-0.377123 16.541L1.55761 17.0478ZM1.05953 18.9494L-0.875201 18.4426H-0.875201L1.05953 18.9494ZM3.44106 21.4644L3.96957 23.3933H3.96957L3.44106 21.4644ZM5.2662 20.9643L4.73769 19.0354H4.73768L5.2662 20.9643ZM5.73215 20.7693L6.68566 19.0112L5.6968 18.4749L4.72494 19.0414L5.73215 20.7693ZM19.1034 11C19.1034 16.0542 15.2036 20 10.5756 20V24C17.5763 24 23.1034 18.0961 23.1034 11H19.1034ZM10.5756 2C15.2036 2 19.1034 5.94583 19.1034 11H23.1034C23.1034 3.90391 17.5763 -2 10.5756 -2V2ZM2.04785 11C2.04785 5.94583 5.94766 2 10.5756 2V-2C3.57493 -2 -1.95215 3.90391 -1.95215 11H2.04785ZM3.35214 15.7855C2.52828 14.4042 2.04785 12.7664 2.04785 11H-1.95215C-1.95215 13.4994 -1.27059 15.8438 -0.08317 17.8345L3.35214 15.7855ZM-0.230027 16.0864C-0.287318 16.234 -0.336444 16.3857 -0.377123 16.541L3.49234 17.5546C3.49477 17.5453 3.49713 17.5384 3.49899 17.5336L-0.230027 16.0864ZM-0.377123 16.541L-0.875201 18.4426L2.99426 19.4561L3.49234 17.5546L-0.377123 16.541ZM-0.875201 18.4426C-1.6178 21.2777 0.86107 24.2451 3.96957 23.3933L2.91254 19.5355C2.91205 19.5357 2.91442 19.535 2.91939 19.5344C2.92435 19.5337 2.93083 19.5333 2.93849 19.5334C2.95444 19.5337 2.97 19.5363 2.98327 19.5404C3.00894 19.5482 3.01393 19.557 3.00751 19.5503C3.00109 19.5435 2.99416 19.5322 2.99067 19.5192C2.98913 19.5135 2.98807 19.5068 2.98803 19.4985C2.98799 19.4906 2.98883 19.4769 2.99426 19.4561L-0.875201 18.4426ZM3.96957 23.3933L5.79472 22.8932L4.73768 19.0354L2.91254 19.5355L3.96957 23.3933ZM5.79472 22.8932C6.13148 22.801 6.44795 22.667 6.73936 22.4972L4.72494 19.0414C4.72842 19.0394 4.73162 19.0378 4.73424 19.0367C4.73688 19.0356 4.73817 19.0353 4.73769 19.0354L5.79472 22.8932ZM10.5756 20C9.17333 20 7.85277 19.6442 6.68566 19.0112L4.77864 22.5274C6.51133 23.4671 8.48502 24 10.5756 24V20Z" fill="#5D83FD" mask="url(#path-4-inside-1_185_17165)"/>
</svg>
