<svg width="27" height="32" viewBox="0 0 27 32" fill="none" xmlns="http://www.w3.org/2000/svg">
<mask id="path-1-inside-1_187_16377" fill="white">
<path d="M9.41288 0.999999C9.41288 1.26522 9.31432 1.51957 9.13888 1.70711C8.96345 1.89464 8.7255 2 8.4774 2L3.79998 2C3.30377 2 2.82788 2.21071 2.477 2.58579C2.12613 2.96086 1.92901 3.46957 1.92901 4L1.92901 28C1.92901 28.5304 2.12613 29.0391 2.477 29.4142C2.82788 29.7893 3.30376 30 3.79998 30L8.47739 30C8.7255 30 8.96344 30.1054 9.13888 30.2929C9.31432 30.4804 9.41288 30.7348 9.41288 31C9.41288 31.2652 9.31432 31.5196 9.13888 31.7071C8.96344 31.8946 8.7255 32 8.47739 32L3.79998 32C2.80755 32 1.85578 31.5786 1.15403 30.8284C0.452279 30.0783 0.0580413 29.0609 0.0580413 28L0.0580424 4C0.0580424 2.93913 0.45228 1.92172 1.15403 1.17157C1.85578 0.421426 2.80755 -1.01667e-06 3.79998 -9.73286e-07L8.4774 -7.68829e-07C8.7255 -7.57984e-07 8.96345 0.105356 9.13888 0.292892C9.31432 0.480429 9.41288 0.734783 9.41288 0.999999Z"/>
<path d="M25.7913 15.292C25.8784 15.3849 25.9476 15.4952 25.9947 15.6167C26.0419 15.7382 26.0662 15.8685 26.0662 16C26.0662 16.1315 26.0419 16.2618 25.9947 16.3833C25.9476 16.5048 25.8784 16.6151 25.7913 16.708L20.1784 22.708C20.0028 22.8958 19.7645 23.0013 19.5161 23.0013C19.2677 23.0013 19.0294 22.8958 18.8538 22.708C18.6781 22.5202 18.5794 22.2656 18.5794 22C18.5794 21.7344 18.6781 21.4798 18.8538 21.292L22.8707 17L6.41933 17C6.17122 17 5.93328 16.8946 5.75784 16.7071C5.58241 16.5196 5.48385 16.2652 5.48385 16C5.48385 15.7348 5.58241 15.4804 5.75784 15.2929C5.93328 15.1054 6.17122 15 6.41933 15L22.8707 15L18.8538 10.708C18.7668 10.615 18.6978 10.5046 18.6507 10.3832C18.6037 10.2617 18.5794 10.1315 18.5794 10C18.5794 9.86851 18.6037 9.73831 18.6507 9.61683C18.6978 9.49535 18.7668 9.38498 18.8538 9.292C18.9408 9.19902 19.044 9.12527 19.1577 9.07495C19.2713 9.02464 19.3931 8.99874 19.5161 8.99874C19.6391 8.99874 19.7609 9.02464 19.8745 9.07495C19.9882 9.12527 20.0914 9.19902 20.1784 9.292L25.7913 15.292Z"/>
</mask>
<path d="M9.41288 0.999999C9.41288 1.26522 9.31432 1.51957 9.13888 1.70711C8.96345 1.89464 8.7255 2 8.4774 2L3.79998 2C3.30377 2 2.82788 2.21071 2.477 2.58579C2.12613 2.96086 1.92901 3.46957 1.92901 4L1.92901 28C1.92901 28.5304 2.12613 29.0391 2.477 29.4142C2.82788 29.7893 3.30376 30 3.79998 30L8.47739 30C8.7255 30 8.96344 30.1054 9.13888 30.2929C9.31432 30.4804 9.41288 30.7348 9.41288 31C9.41288 31.2652 9.31432 31.5196 9.13888 31.7071C8.96344 31.8946 8.7255 32 8.47739 32L3.79998 32C2.80755 32 1.85578 31.5786 1.15403 30.8284C0.452279 30.0783 0.0580413 29.0609 0.0580413 28L0.0580424 4C0.0580424 2.93913 0.45228 1.92172 1.15403 1.17157C1.85578 0.421426 2.80755 -1.01667e-06 3.79998 -9.73286e-07L8.4774 -7.68829e-07C8.7255 -7.57984e-07 8.96345 0.105356 9.13888 0.292892C9.31432 0.480429 9.41288 0.734783 9.41288 0.999999Z" fill="#2B69F5"/>
<path d="M25.7913 15.292C25.8784 15.3849 25.9476 15.4952 25.9947 15.6167C26.0419 15.7382 26.0662 15.8685 26.0662 16C26.0662 16.1315 26.0419 16.2618 25.9947 16.3833C25.9476 16.5048 25.8784 16.6151 25.7913 16.708L20.1784 22.708C20.0028 22.8958 19.7645 23.0013 19.5161 23.0013C19.2677 23.0013 19.0294 22.8958 18.8538 22.708C18.6781 22.5202 18.5794 22.2656 18.5794 22C18.5794 21.7344 18.6781 21.4798 18.8538 21.292L22.8707 17L6.41933 17C6.17122 17 5.93328 16.8946 5.75784 16.7071C5.58241 16.5196 5.48385 16.2652 5.48385 16C5.48385 15.7348 5.58241 15.4804 5.75784 15.2929C5.93328 15.1054 6.17122 15 6.41933 15L22.8707 15L18.8538 10.708C18.7668 10.615 18.6978 10.5046 18.6507 10.3832C18.6037 10.2617 18.5794 10.1315 18.5794 10C18.5794 9.86851 18.6037 9.73831 18.6507 9.61683C18.6978 9.49535 18.7668 9.38498 18.8538 9.292C18.9408 9.19902 19.044 9.12527 19.1577 9.07495C19.2713 9.02464 19.3931 8.99874 19.5161 8.99874C19.6391 8.99874 19.7609 9.02464 19.8745 9.07495C19.9882 9.12527 20.0914 9.19902 20.1784 9.292L25.7913 15.292Z" fill="#2B69F5"/>
<path d="M9.13888 1.70711L7.67834 0.340792L7.67834 0.340792L9.13888 1.70711ZM9.13888 30.2929L7.67834 31.6592L9.13888 30.2929ZM9.13888 31.7071L7.67834 30.3408L9.13888 31.7071ZM1.15403 1.17157L2.61457 2.53789L1.15403 1.17157ZM3.79998 -9.73286e-07L3.79998 -2L3.79998 -9.73286e-07ZM8.4774 -7.68829e-07L8.4774 -2L8.4774 -7.68829e-07ZM9.13888 0.292892L7.67834 1.65921L7.67834 1.65921L9.13888 0.292892ZM25.7913 15.292L24.3308 16.6583L24.3325 16.6602L25.7913 15.292ZM25.9947 15.6167L24.1303 16.3405L25.9947 15.6167ZM25.9947 16.3833L24.1303 15.6595L25.9947 16.3833ZM25.7913 16.708L24.3325 15.3398L24.3308 15.3417L25.7913 16.708ZM20.1784 22.708L18.7179 21.3417L18.7179 21.3417L20.1784 22.708ZM18.8538 21.292L17.3936 19.9253L17.3932 19.9257L18.8538 21.292ZM22.8707 17L24.331 18.3667L27.4819 15L22.8707 15L22.8707 17ZM22.8707 15L22.8707 17L27.4819 17L24.331 13.6333L22.8707 15ZM18.8538 10.708L17.3932 12.0743L17.3936 12.0747L18.8538 10.708ZM19.1577 9.07495L19.9674 10.9037L19.1577 9.07495ZM19.5161 8.99874L19.5161 6.99874L19.5161 8.99874ZM19.8745 9.07495L19.0648 10.9037L19.8745 9.07495ZM20.1784 9.292L21.639 7.92569L21.639 7.92568L20.1784 9.292ZM7.41288 0.999999C7.41288 0.776222 7.4948 0.536989 7.67834 0.340792L10.5994 3.07342C11.1338 2.50215 11.4129 1.75421 11.4129 0.999999L7.41288 0.999999ZM7.67834 0.340792C7.8661 0.14008 8.1504 -7.83123e-07 8.4774 -7.68829e-07L8.4774 4C9.30061 4 10.0608 3.64921 10.5994 3.07342L7.67834 0.340792ZM8.4774 -7.68829e-07L3.79998 -9.73286e-07L3.79998 4L8.4774 4L8.4774 -7.68829e-07ZM3.79998 -9.73286e-07C2.72866 -1.02011e-06 1.73054 0.456147 1.01646 1.21947L3.93755 3.9521C3.92522 3.96528 3.87887 4 3.79998 4L3.79998 -9.73286e-07ZM1.01646 1.21947C0.3066 1.97828 -0.0709897 2.98058 -0.0709898 4L3.92901 4C3.92901 3.982 3.93246 3.96722 3.93632 3.95726C3.94017 3.94731 3.94259 3.94671 3.93755 3.9521L1.01646 1.21947ZM-0.0709898 4L-0.0709908 28L3.92901 28L3.92901 4L-0.0709898 4ZM-0.0709908 28C-0.0709909 29.0194 0.306601 30.0217 1.01646 30.7805L3.93754 28.0479C3.94258 28.0533 3.94017 28.0527 3.93632 28.0427C3.93246 28.0328 3.92901 28.018 3.92901 28L-0.0709908 28ZM1.01646 30.7805C1.73053 31.5438 2.72866 32 3.79998 32L3.79998 28C3.87887 28 3.92522 28.0347 3.93754 28.0479L1.01646 30.7805ZM3.79998 32L8.47739 32L8.47739 28L3.79998 28L3.79998 32ZM8.47739 32C8.1504 32 7.8661 31.8599 7.67834 31.6592L10.5994 28.9266C10.0608 28.3508 9.3006 28 8.47739 28L8.47739 32ZM7.67834 31.6592C7.4948 31.463 7.41288 31.2238 7.41288 31L11.4129 31C11.4129 30.2458 11.1338 29.4978 10.5994 28.9266L7.67834 31.6592ZM7.41288 31C7.41288 30.7762 7.4948 30.537 7.67834 30.3408L10.5994 33.0734C11.1338 32.5022 11.4129 31.7542 11.4129 31L7.41288 31ZM7.67834 30.3408C7.8661 30.1401 8.1504 30 8.47739 30L8.47739 34C9.3006 34 10.0608 33.6492 10.5994 33.0734L7.67834 30.3408ZM8.47739 30L3.79998 30L3.79998 34L8.47739 34L8.47739 30ZM3.79998 30C3.38266 30 2.95312 29.824 2.61457 29.4621L-0.306514 32.1947C0.758435 33.3331 2.23245 34 3.79998 34L3.79998 30ZM2.61457 29.4621C2.2718 29.0957 2.05804 28.5719 2.05804 28L-1.94196 28C-1.94196 29.5499 -1.36725 31.0609 -0.306514 32.1947L2.61457 29.4621ZM2.05804 28L2.05804 4L-1.94196 4L-1.94196 28L2.05804 28ZM2.05804 4C2.05804 3.42812 2.2718 2.90429 2.61457 2.53789L-0.306513 -0.194743C-1.36724 0.939142 -1.94196 2.45015 -1.94196 4L2.05804 4ZM2.61457 2.53789C2.95312 2.17599 3.38266 2 3.79998 2L3.79998 -2C2.23245 -2 0.758438 -1.33314 -0.306513 -0.194743L2.61457 2.53789ZM3.79998 2L8.4774 2L8.4774 -2L3.79998 -2L3.79998 2ZM8.4774 2C8.1504 2 7.8661 1.85992 7.67834 1.65921L10.5994 -1.07342C10.0608 -1.64921 9.30061 -2 8.4774 -2L8.4774 2ZM7.67834 1.65921C7.4948 1.46301 7.41288 1.22378 7.41288 0.999999L11.4129 0.999999C11.4129 0.245789 11.1338 -0.502151 10.5994 -1.07342L7.67834 1.65921ZM24.3325 16.6602C24.2403 16.5618 24.1736 16.4521 24.1303 16.3405L27.8592 14.893C27.7215 14.5384 27.5166 14.208 27.2501 13.9238L24.3325 16.6602ZM24.1303 16.3405C24.087 16.229 24.0662 16.1137 24.0662 16L28.0662 16C28.0662 15.6233 27.9968 15.2474 27.8592 14.893L24.1303 16.3405ZM24.0662 16C24.0662 15.8863 24.087 15.771 24.1303 15.6595L27.8592 17.107C27.9968 16.7526 28.0662 16.3767 28.0662 16L24.0662 16ZM24.1303 15.6595C24.1736 15.5479 24.2403 15.4382 24.3325 15.3398L27.2501 18.0762C27.5166 17.792 27.7215 17.4616 27.8592 17.107L24.1303 15.6595ZM24.3308 15.3417L18.7179 21.3417L21.639 24.0743L27.2519 18.0743L24.3308 15.3417ZM18.7179 21.3417C18.9054 21.1412 19.1894 21.0013 19.5161 21.0013L19.5161 25.0013C20.3396 25.0013 21.1001 24.6503 21.639 24.0743L18.7179 21.3417ZM19.5161 21.0013C19.8428 21.0013 20.1268 21.1412 20.3143 21.3417L17.3932 24.0743C17.9321 24.6503 18.6926 25.0013 19.5161 25.0013L19.5161 21.0013ZM20.3143 21.3417C20.4976 21.5377 20.5794 21.7766 20.5794 22L16.5794 22C16.5794 22.7545 16.8586 23.5028 17.3932 24.0743L20.3143 21.3417ZM20.5794 22C20.5794 22.2234 20.4976 22.4623 20.3143 22.6583L17.3932 19.9257C16.8586 20.4972 16.5794 21.2455 16.5794 22L20.5794 22ZM20.314 22.6587L24.331 18.3667L21.4105 15.6333L17.3936 19.9253L20.314 22.6587ZM22.8707 15L6.41933 15L6.41933 19L22.8707 19L22.8707 15ZM6.41933 15C6.74632 15 7.03062 15.1401 7.21839 15.3408L4.2973 18.0734C4.83594 18.6492 5.59613 19 6.41933 19L6.41933 15ZM7.21839 15.3408C7.40193 15.537 7.48385 15.7762 7.48385 16L3.48385 16C3.48385 16.7542 3.76288 17.5021 4.2973 18.0734L7.21839 15.3408ZM7.48385 16C7.48385 16.2238 7.40193 16.463 7.21839 16.6592L4.2973 13.9266C3.76288 14.4979 3.48385 15.2458 3.48385 16L7.48385 16ZM7.21839 16.6592C7.03062 16.8599 6.74633 17 6.41933 17L6.41933 13C5.59612 13 4.83594 13.3508 4.2973 13.9266L7.21839 16.6592ZM6.41933 17L22.8707 17L22.8707 13L6.41933 13L6.41933 17ZM24.331 13.6333L20.314 9.34135L17.3936 12.0747L21.4105 16.3667L24.331 13.6333ZM20.3143 9.34168C20.4061 9.43984 20.4725 9.54925 20.5156 9.66054L16.7858 11.1058C16.9231 11.46 17.1275 11.7902 17.3932 12.0743L20.3143 9.34168ZM20.5156 9.66054C20.5587 9.7717 20.5794 9.88668 20.5794 10L16.5794 10C16.5794 10.3763 16.6486 10.7517 16.7858 11.1058L20.5156 9.66054ZM20.5794 10C20.5794 10.1133 20.5587 10.2283 20.5156 10.3395L16.7858 8.89421C16.6486 9.24832 16.5794 9.62371 16.5794 10L20.5794 10ZM20.5156 10.3395C20.4725 10.4507 20.4061 10.5602 20.3143 10.6583L17.3932 7.92568C17.1275 8.20979 16.9231 8.53996 16.7858 8.89421L20.5156 10.3395ZM20.3143 10.6583C20.2222 10.7567 20.1056 10.8425 19.9674 10.9037L18.3479 7.2462C17.9824 7.40805 17.6593 7.64131 17.3932 7.92568L20.3143 10.6583ZM19.9674 10.9037C19.8287 10.9651 19.675 10.9987 19.5161 10.9987L19.5161 6.99874C19.1112 6.99874 18.7139 7.08418 18.3479 7.2462L19.9674 10.9037ZM19.5161 10.9987C19.3572 10.9987 19.2035 10.9651 19.0648 10.9037L20.6843 7.2462C20.3184 7.08418 19.921 6.99874 19.5161 6.99874L19.5161 10.9987ZM19.0648 10.9037C18.9266 10.8425 18.81 10.7567 18.7179 10.6583L21.639 7.92568C21.3729 7.64131 21.0498 7.40805 20.6843 7.2462L19.0648 10.9037ZM18.7179 10.6583L24.3308 16.6583L27.2519 13.9257L21.639 7.92569L18.7179 10.6583Z" fill="#2B69F5" mask="url(#path-1-inside-1_187_16377)"/>
</svg>
