<svg width="17" height="13" viewBox="0 0 17 13" fill="none" xmlns="http://www.w3.org/2000/svg">
<path d="M2.70585 7.16925C2.4203 6.93497 2.04821 6.80785 1.66422 6.8134C1.28023 6.81895 0.912746 6.95676 0.635476 7.19918C0.358206 7.44159 0.191662 7.77069 0.169252 8.12046C0.146841 8.47022 0.270221 8.81478 0.514643 9.08502L3.89275 12.3196C4.03418 12.455 4.20413 12.5629 4.3924 12.6368C4.58067 12.7108 4.78338 12.7493 4.98835 12.75C5.19224 12.7511 5.39429 12.7148 5.5825 12.6432C5.77071 12.5717 5.94123 12.4663 6.08396 12.3335L16.4009 2.61583C16.5408 2.48457 16.6509 2.32945 16.7251 2.15935C16.7993 1.98924 16.836 1.80748 16.8332 1.62443C16.8303 1.44137 16.788 1.26062 16.7086 1.09249C16.6292 0.924358 16.5143 0.77214 16.3704 0.644526C16.2266 0.516912 16.0565 0.4164 15.8701 0.348731C15.6836 0.281062 15.4844 0.24756 15.2838 0.250138C15.0831 0.252716 14.885 0.291324 14.7007 0.363757C14.5164 0.43619 14.3496 0.54103 14.2097 0.672291L5.00357 9.36267L2.70585 7.16925Z" fill="white"/>
</svg>
